<?xml version="1.0" encoding="UTF-8"?>
<svg width="500" height="400" viewBox="0 0 500 400" xmlns="http://www.w3.org/2000/svg">
  <rect x="30" y="30" rx="12" ry="12" width="440" height="340" fill="#222" />
  <rect x="50" y="50" rx="8" ry="8" width="400" height="300" fill="#1a1a1a" />
  <g transform="translate(70,70)">
    <rect x="0" y="0" width="110" height="80" rx="6" fill="#e8c4a8" />
    <rect x="120" y="0" width="110" height="80" rx="6" fill="#d2845f" />
    <rect x="240" y="0" width="110" height="80" rx="6" fill="#c47a56" />
    <rect x="0" y="90" width="110" height="80" rx="6" fill="#b8704d" />
    <rect x="120" y="90" width="110" height="80" rx="6" fill="#a66544" />
    <rect x="240" y="90" width="110" height="80" rx="6" fill="#8b5a3c" />
    <rect x="0" y="180" width="110" height="80" rx="6" fill="#7a4f33" />
    <rect x="120" y="180" width="110" height="80" rx="6" fill="#69442a" />
    <rect x="240" y="180" width="110" height="80" rx="6" fill="#2c2c2c" />
  </g>
  <ellipse cx="250" cy="360" rx="160" ry="20" fill="#000" opacity="0.12" />
</svg>